<?xml version="1.0" encoding="UTF-8" standalone="no"?>
<!-- Created with Inkscape (http://www.inkscape.org/) -->

<svg
   xmlns:dc="http://purl.org/dc/elements/1.1/"
   xmlns:cc="http://creativecommons.org/ns#"
   xmlns:rdf="http://www.w3.org/1999/02/22-rdf-syntax-ns#"
   xmlns:svg="http://www.w3.org/2000/svg"
   xmlns="http://www.w3.org/2000/svg"
   xmlns:sodipodi="http://sodipodi.sourceforge.net/DTD/sodipodi-0.dtd"
   xmlns:inkscape="http://www.inkscape.org/namespaces/inkscape"
   width="210mm"
   height="297mm"
   id="svg2"
   version="1.1"
   inkscape:version="0.48.2 r9819"
   sodipodi:docname="resource.svg">
  <defs
     id="defs4">
    <linearGradient
       id="linearGradient5460">
      <stop
         id="stop5464"
         offset="1"
         style="stop-color:#626ed0;stop-opacity:0;" />
    </linearGradient>
    <linearGradient
       id="linearGradient5442">
      <stop
         style="stop-color:#003f55;stop-opacity:1;"
         offset="0"
         id="stop5444" />
      <stop
         style="stop-color:#a48e8e;stop-opacity:0;"
         offset="1"
         id="stop5446" />
    </linearGradient>
    <linearGradient
       id="linearGradient5402">
      <stop
         style="stop-color:#112318;stop-opacity:1;"
         offset="0"
         id="stop5404" />
      <stop
         style="stop-color:#1a1a1a;stop-opacity:0;"
         offset="1"
         id="stop5406" />
    </linearGradient>
    <inkscape:perspective
       sodipodi:type="inkscape:persp3d"
       inkscape:vp_x="112.37364 : 1497.2553 : 1"
       inkscape:vp_y="-20.437481 : 5.7712588e-15 : 0"
       inkscape:vp_z="87.398095 : 947.31117 : 1"
       inkscape:persp3d-origin="161.46981 : 1168.0496 : 1"
       id="perspective3759" />
    <filter
       inkscape:collect="always"
       id="filter5589">
      <feGaussianBlur
         inkscape:collect="always"
         stdDeviation="3.7108127"
         id="feGaussianBlur5591" />
    </filter>
  </defs>
  <sodipodi:namedview
     id="base"
     pagecolor="#ffffff"
     bordercolor="#666666"
     borderopacity="1.0"
     inkscape:pageopacity="0.0"
     inkscape:pageshadow="2"
     inkscape:zoom="0.25"
     inkscape:cx="1181.0615"
     inkscape:cy="-565.44161"
     inkscape:document-units="px"
     inkscape:current-layer="layer1"
     showgrid="false"
     showguides="true"
     inkscape:guide-bbox="true"
     inkscape:window-width="1359"
     inkscape:window-height="837"
     inkscape:window-x="47"
     inkscape:window-y="0"
     inkscape:window-maximized="0" />
  <metadata
     id="metadata7">
    <rdf:RDF>
      <cc:Work
         rdf:about="">
        <dc:format>image/svg+xml</dc:format>
        <dc:type
           rdf:resource="http://purl.org/dc/dcmitype/StillImage" />
        <dc:title />
      </cc:Work>
    </rdf:RDF>
  </metadata>
  <g
     inkscape:label="レイヤー 1"
     inkscape:groupmode="layer"
     id="layer1">
    <g
       id="g5667"
       transform="translate(850,1644)">
      <path
         style="fill:#606060;fill-opacity:1;fill-rule:nonzero;stroke:none"
         d="m 212.4428,266.7764 303.42815,0 c 4.45984,0 8.05025,3.59041 8.05025,8.05025 l 0,302.7329 c 0,4.45984 -3.59041,8.05025 -8.05025,8.05025 l -303.42815,0 c -4.45984,0 -8.05025,-3.59041 -8.05025,-8.05025 l 0,-302.7329 c 0,-4.45984 3.59041,-8.05025 8.05025,-8.05025 z"
         id="rect5617"
         inkscape:connector-curvature="0" />
      <path
         style="fill:#838383;fill-opacity:1;fill-rule:nonzero;stroke:none"
         d="m 217.05025,266.7764 294.8995,0 c 4.45984,0 8.05025,3.59041 8.05025,8.05025 l 0,294.89949 c 0,4.45984 -3.59041,8.05026 -8.05025,8.05026 l -294.8995,0 c -4.45984,0 -8.05025,-3.59042 -8.05025,-8.05026 l 0,-294.89949 c 0,-4.45984 3.59041,-8.05025 8.05025,-8.05025 z"
         id="rect5533"
         inkscape:connector-curvature="0" />
      <g
         transform="matrix(1.0104697,0,0,1.0104697,-2.0125384,14.037728)"
         id="g5609">
        <g
           transform="translate(1.4142136,5.656854)"
           id="g5571"
           style="fill:#a5a5a5;fill-opacity:1;stroke:none;filter:url(#filter5589)">
          <path
             transform="matrix(-0.70811576,-0.70609636,0.70811576,-0.70609636,0,0)"
             style="fill:#a5a5a5;fill-rule:nonzero"
             d="m -580.95625,-98.111023 124.72695,0 c 14.25474,0 25.73058,11.47584 25.73058,25.730583 l 0,1.497105 c 0,14.254743 -11.47584,25.730583 -25.73058,25.730583 l -124.72695,0 c -14.25474,0 -25.73058,-11.47584 -25.73058,-25.730583 l 0,-1.497105 c 0,-14.254743 11.47584,-25.730583 25.73058,-25.730583 z"
             id="rect5573"
             inkscape:connector-curvature="0" />
          <path
             transform="matrix(0.70609636,-0.70811576,0.70609636,0.70811576,0,0)"
             style="fill:#a5a5a5;fill-rule:nonzero"
             d="m -68.923775,555.50201 124.726944,0 c 14.254743,0 25.730583,11.47584 25.730583,25.73059 l 0,1.4971 c 0,14.25475 -11.47584,25.73059 -25.730583,25.73059 l -124.726944,0 c -14.254743,0 -25.730583,-11.47584 -25.730583,-25.73059 l 0,-1.4971 c 0,-14.25475 11.47584,-25.73059 25.730583,-25.73059 z"
             id="rect5575"
             inkscape:connector-curvature="0" />
        </g>
        <g
           id="g5567"
           transform="translate(1.4142136,5.656854)"
           style="fill:#fdfdfd;fill-opacity:1;stroke:none">
          <path
             transform="matrix(-0.70811576,-0.70609636,0.70811576,-0.70609636,0,0)"
             style="fill:#fdfdfd;fill-rule:nonzero"
             d="m -580.95625,-98.111023 124.72695,0 c 14.25474,0 25.73058,11.47584 25.73058,25.730583 l 0,1.497105 c 0,14.254743 -11.47584,25.730583 -25.73058,25.730583 l -124.72695,0 c -14.25474,0 -25.73058,-11.47584 -25.73058,-25.730583 l 0,-1.497105 c 0,-14.254743 11.47584,-25.730583 25.73058,-25.730583 z"
             id="rect5535"
             inkscape:connector-curvature="0" />
          <path
             transform="matrix(0.70609636,-0.70811576,0.70609636,0.70811576,0,0)"
             style="fill:#fdfdfd;fill-rule:nonzero"
             d="m -68.923775,555.50201 124.726944,0 c 14.254743,0 25.730583,11.47584 25.730583,25.73059 l 0,1.4971 c 0,14.25475 -11.47584,25.73059 -25.730583,25.73059 l -124.726944,0 c -14.254743,0 -25.730583,-11.47584 -25.730583,-25.73059 l 0,-1.4971 c 0,-14.25475 11.47584,-25.73059 25.730583,-25.73059 z"
             id="rect5541"
             inkscape:connector-curvature="0" />
        </g>
      </g>
    </g>
    <g
       id="g5656"
       transform="translate(479,943)">
      <path
         style="fill:#c00011;fill-opacity:1;fill-rule:nonzero;stroke:none"
         d="m 574.44283,255.7764 303.42815,0 c 4.45984,0 8.05025,3.59041 8.05025,8.05025 l 0,302.7329 c 0,4.45984 -3.59041,8.05025 -8.05025,8.05025 l -303.42815,0 c -4.45984,0 -8.05025,-3.59041 -8.05025,-8.05025 l 0,-302.7329 c 0,-4.45984 3.59041,-8.05025 8.05025,-8.05025 z"
         id="rect5638"
         inkscape:connector-curvature="0" />
      <path
         style="fill:#ed4855;fill-opacity:1;fill-rule:nonzero;stroke:none"
         d="m 579.05025,255.7764 294.8995,0 c 4.45984,0 8.05025,3.59041 8.05025,8.05025 l 0,294.89949 c 0,4.45984 -3.59041,8.05026 -8.05025,8.05026 l -294.8995,0 c -4.45984,0 -8.05025,-3.59042 -8.05025,-8.05026 l 0,-294.89949 c 0,-4.45984 3.59041,-8.05025 8.05025,-8.05025 z"
         id="rect5640"
         inkscape:connector-curvature="0" />
      <g
         id="g5642"
         transform="matrix(1.0104697,0,0,1.0104697,359.98746,3.037728)">
        <g
           style="fill:#a5a5a5;fill-opacity:1;stroke:none;filter:url(#filter5589)"
           id="g5644"
           transform="translate(1.4142136,5.656854)">
          <path
             transform="matrix(-0.70811576,-0.70609636,0.70811576,-0.70609636,0,0)"
             style="fill:#a5a5a5;fill-rule:nonzero"
             d="m -580.95625,-98.111023 124.72695,0 c 14.25474,0 25.73058,11.47584 25.73058,25.730583 l 0,1.497105 c 0,14.254743 -11.47584,25.730583 -25.73058,25.730583 l -124.72695,0 c -14.25474,0 -25.73058,-11.47584 -25.73058,-25.730583 l 0,-1.497105 c 0,-14.254743 11.47584,-25.730583 25.73058,-25.730583 z"
             id="rect5646"
             inkscape:connector-curvature="0" />
          <path
             transform="matrix(0.70609636,-0.70811576,0.70609636,0.70811576,0,0)"
             style="fill:#a5a5a5;fill-rule:nonzero"
             d="m -68.923775,555.50201 124.726944,0 c 14.254743,0 25.730583,11.47584 25.730583,25.73059 l 0,1.4971 c 0,14.25475 -11.47584,25.73059 -25.730583,25.73059 l -124.726944,0 c -14.254743,0 -25.730583,-11.47584 -25.730583,-25.73059 l 0,-1.4971 c 0,-14.25475 11.47584,-25.73059 25.730583,-25.73059 z"
             id="rect5648"
             inkscape:connector-curvature="0" />
        </g>
        <g
           style="fill:#fdfdfd;fill-opacity:1;stroke:none"
           transform="translate(1.4142136,5.656854)"
           id="g5650">
          <path
             transform="matrix(-0.70811576,-0.70609636,0.70811576,-0.70609636,0,0)"
             style="fill:#fdfdfd;fill-rule:nonzero"
             d="m -580.95625,-98.111023 124.72695,0 c 14.25474,0 25.73058,11.47584 25.73058,25.730583 l 0,1.497105 c 0,14.254743 -11.47584,25.730583 -25.73058,25.730583 l -124.72695,0 c -14.25474,0 -25.73058,-11.47584 -25.73058,-25.730583 l 0,-1.497105 c 0,-14.254743 11.47584,-25.730583 25.73058,-25.730583 z"
             id="rect5652"
             inkscape:connector-curvature="0" />
          <path
             transform="matrix(0.70609636,-0.70811576,0.70609636,0.70811576,0,0)"
             style="fill:#fdfdfd;fill-rule:nonzero"
             d="m -68.923775,555.50201 124.726944,0 c 14.254743,0 25.730583,11.47584 25.730583,25.73059 l 0,1.4971 c 0,14.25475 -11.47584,25.73059 -25.730583,25.73059 l -124.726944,0 c -14.254743,0 -25.730583,-11.47584 -25.730583,-25.73059 l 0,-1.4971 c 0,-14.25475 11.47584,-25.73059 25.730583,-25.73059 z"
             id="rect5654"
             inkscape:connector-curvature="0" />
        </g>
      </g>
    </g>
    <g
       id="g5753"
       transform="translate(484,1284)">
      <path
         style="fill:#ff5866;fill-opacity:1;fill-rule:nonzero;stroke:none"
         d="m 565.44283,256.7764 303.42815,0 c 4.45984,0 8.05025,3.59041 8.05025,8.05025 l 0,302.7329 c 0,4.45984 -3.59041,8.05025 -8.05025,8.05025 l -303.42815,0 c -4.45984,0 -8.05025,-3.59041 -8.05025,-8.05025 l 0,-302.7329 c 0,-4.45984 3.59041,-8.05025 8.05025,-8.05025 z"
         id="rect5680"
         inkscape:connector-curvature="0" />
      <path
         style="fill:#f27b84;fill-opacity:1;fill-rule:nonzero;stroke:none"
         d="m 570.05025,256.7764 294.8995,0 c 4.45984,0 8.05025,3.59041 8.05025,8.05025 l 0,294.89949 c 0,4.45984 -3.59041,8.05026 -8.05025,8.05026 l -294.8995,0 c -4.45984,0 -8.05025,-3.59042 -8.05025,-8.05026 l 0,-294.89949 c 0,-4.45984 3.59041,-8.05025 8.05025,-8.05025 z"
         id="rect5682"
         inkscape:connector-curvature="0" />
      <g
         transform="matrix(1.0104697,0,0,1.0104697,350.98746,4.037728)"
         id="g5684">
        <g
           transform="translate(1.4142136,5.656854)"
           id="g5686"
           style="fill:#a5a5a5;fill-opacity:1;stroke:none;filter:url(#filter5589)">
          <path
             transform="matrix(-0.70811576,-0.70609636,0.70811576,-0.70609636,0,0)"
             style="fill:#a5a5a5;fill-rule:nonzero"
             d="m -580.95625,-98.111023 124.72695,0 c 14.25474,0 25.73058,11.47584 25.73058,25.730583 l 0,1.497105 c 0,14.254743 -11.47584,25.730583 -25.73058,25.730583 l -124.72695,0 c -14.25474,0 -25.73058,-11.47584 -25.73058,-25.730583 l 0,-1.497105 c 0,-14.254743 11.47584,-25.730583 25.73058,-25.730583 z"
             id="rect5688"
             inkscape:connector-curvature="0" />
          <path
             transform="matrix(0.70609636,-0.70811576,0.70609636,0.70811576,0,0)"
             style="fill:#a5a5a5;fill-rule:nonzero"
             d="m -68.923775,555.50201 124.726944,0 c 14.254743,0 25.730583,11.47584 25.730583,25.73059 l 0,1.4971 c 0,14.25475 -11.47584,25.73059 -25.730583,25.73059 l -124.726944,0 c -14.254743,0 -25.730583,-11.47584 -25.730583,-25.73059 l 0,-1.4971 c 0,-14.25475 11.47584,-25.73059 25.730583,-25.73059 z"
             id="rect5690"
             inkscape:connector-curvature="0" />
        </g>
        <g
           id="g5692"
           transform="translate(1.4142136,5.656854)"
           style="fill:#fdfdfd;fill-opacity:1;stroke:none">
          <path
             transform="matrix(-0.70811576,-0.70609636,0.70811576,-0.70609636,0,0)"
             style="fill:#fdfdfd;fill-rule:nonzero"
             d="m -580.95625,-98.111023 124.72695,0 c 14.25474,0 25.73058,11.47584 25.73058,25.730583 l 0,1.497105 c 0,14.254743 -11.47584,25.730583 -25.73058,25.730583 l -124.72695,0 c -14.25474,0 -25.73058,-11.47584 -25.73058,-25.730583 l 0,-1.497105 c 0,-14.254743 11.47584,-25.730583 25.73058,-25.730583 z"
             id="rect5694"
             inkscape:connector-curvature="0" />
          <path
             transform="matrix(0.70609636,-0.70811576,0.70609636,0.70811576,0,0)"
             style="fill:#fdfdfd;fill-rule:nonzero"
             d="m -68.923775,555.50201 124.726944,0 c 14.254743,0 25.730583,11.47584 25.730583,25.73059 l 0,1.4971 c 0,14.25475 -11.47584,25.73059 -25.730583,25.73059 l -124.726944,0 c -14.254743,0 -25.730583,-11.47584 -25.730583,-25.73059 l 0,-1.4971 c 0,-14.25475 11.47584,-25.73059 25.730583,-25.73059 z"
             id="rect5696"
             inkscape:connector-curvature="0" />
        </g>
      </g>
    </g>
    <g
       id="g5784"
       transform="translate(307.33015,-202.84675)"
       inkscape:export-xdpi="90"
       inkscape:export-ydpi="90">
      <rect
         ry="0"
         rx="0"
         y="124.36218"
         x="1297.7561"
         height="1024"
         width="1024"
         id="rect5710"
         style="fill:#ffffff;fill-opacity:1;fill-rule:nonzero;stroke:none" />
    </g>
    <text
       xml:space="preserve"
       style="font-size:40px;font-style:normal;font-weight:normal;line-height:125%;letter-spacing:0px;word-spacing:0px;fill:#000000;fill-opacity:1;stroke:none;font-family:Sans"
       x="1730"
       y="-57.637817"
       id="text5797"
       sodipodi:linespacing="125%"><tspan
         sodipodi:role="line"
         x="1730"
         y="-57.637817"
         id="tspan5801"
         style="font-size:64px">1024*1024</tspan></text>
    <g
       transform="matrix(1.6461054,0,0,1.6461054,573.05067,-274.25852)"
       id="g5805">
      <g
         transform="matrix(1.0104697,0,0,1.0104697,359.98746,3.037728)"
         id="g5811">
        <g
           id="g5819"
           transform="translate(1.4142136,5.656854)"
           style="fill:#fdfdfd;fill-opacity:1;stroke:none" />
      </g>
    </g>
    <g
       transform="matrix(2.8181628,0,0,2.8181628,70.657872,-736.56632)"
       id="g5831">
      <path
         id="path5833"
         d="m 574.44283,255.7764 303.42815,0 c 4.45984,0 8.05025,3.59041 8.05025,8.05025 l 0,302.7329 c 0,4.45984 -3.59041,8.05025 -8.05025,8.05025 l -303.42815,0 c -4.45984,0 -8.05025,-3.59041 -8.05025,-8.05025 l 0,-302.7329 c 0,-4.45984 3.59041,-8.05025 8.05025,-8.05025 z"
         style="fill:#c00011;fill-opacity:1;fill-rule:nonzero;stroke:none"
         inkscape:connector-curvature="0" />
      <path
         id="path5835"
         d="m 579.05025,255.7764 294.8995,0 c 4.45984,0 8.05025,3.59041 8.05025,8.05025 l 0,294.89949 c 0,4.45984 -3.59041,8.05026 -8.05025,8.05026 l -294.8995,0 c -4.45984,0 -8.05025,-3.59042 -8.05025,-8.05026 l 0,-294.89949 c 0,-4.45984 3.59041,-8.05025 8.05025,-8.05025 z"
         style="fill:#ed4855;fill-opacity:1;fill-rule:nonzero;stroke:none"
         inkscape:connector-curvature="0" />
      <g
         transform="matrix(1.0104697,0,0,1.0104697,359.98746,3.037728)"
         id="g5837">
        <g
           transform="translate(1.4142136,5.656854)"
           id="g5839"
           style="fill:#a5a5a5;fill-opacity:1;stroke:none;filter:url(#filter5589)">
          <path
             id="path5841"
             d="m -580.95625,-98.111023 124.72695,0 c 14.25474,0 25.73058,11.47584 25.73058,25.730583 l 0,1.497105 c 0,14.254743 -11.47584,25.730583 -25.73058,25.730583 l -124.72695,0 c -14.25474,0 -25.73058,-11.47584 -25.73058,-25.730583 l 0,-1.497105 c 0,-14.254743 11.47584,-25.730583 25.73058,-25.730583 z"
             style="fill:#a5a5a5;fill-rule:nonzero"
             transform="matrix(-0.70811576,-0.70609636,0.70811576,-0.70609636,0,0)"
             inkscape:connector-curvature="0" />
          <path
             id="path5843"
             d="m -68.923775,555.50201 124.726944,0 c 14.254743,0 25.730583,11.47584 25.730583,25.73059 l 0,1.4971 c 0,14.25475 -11.47584,25.73059 -25.730583,25.73059 l -124.726944,0 c -14.254743,0 -25.730583,-11.47584 -25.730583,-25.73059 l 0,-1.4971 c 0,-14.25475 11.47584,-25.73059 25.730583,-25.73059 z"
             style="fill:#a5a5a5;fill-rule:nonzero"
             transform="matrix(0.70609636,-0.70811576,0.70609636,0.70811576,0,0)"
             inkscape:connector-curvature="0" />
        </g>
        <g
           id="g5845"
           transform="translate(1.4142136,5.656854)"
           style="fill:#fdfdfd;fill-opacity:1;stroke:none">
          <path
             id="path5847"
             d="m -580.95625,-98.111023 124.72695,0 c 14.25474,0 25.73058,11.47584 25.73058,25.730583 l 0,1.497105 c 0,14.254743 -11.47584,25.730583 -25.73058,25.730583 l -124.72695,0 c -14.25474,0 -25.73058,-11.47584 -25.73058,-25.730583 l 0,-1.497105 c 0,-14.254743 11.47584,-25.730583 25.73058,-25.730583 z"
             style="fill:#fdfdfd;fill-rule:nonzero"
             transform="matrix(-0.70811576,-0.70609636,0.70811576,-0.70609636,0,0)"
             inkscape:connector-curvature="0" />
          <path
             id="path5849"
             d="m -68.923775,555.50201 124.726944,0 c 14.254743,0 25.730583,11.47584 25.730583,25.73059 l 0,1.4971 c 0,14.25475 -11.47584,25.73059 -25.730583,25.73059 l -124.726944,0 c -14.254743,0 -25.730583,-11.47584 -25.730583,-25.73059 l 0,-1.4971 c 0,-14.25475 11.47584,-25.73059 25.730583,-25.73059 z"
             style="fill:#fdfdfd;fill-rule:nonzero"
             transform="matrix(0.70609636,-0.70811576,0.70609636,0.70811576,0,0)"
             inkscape:connector-curvature="0" />
        </g>
      </g>
    </g>
    <g
       transform="translate(-726,-342)"
       id="g3042">
      <rect
         ry="8.0502529"
         rx="8.0502529"
         y="266.7764"
         x="204.39255"
         height="318.8334"
         width="319.52866"
         id="rect3044"
         style="fill:#606060;fill-opacity:1;fill-rule:nonzero;stroke:none" />
      <rect
         style="fill:#838383;fill-opacity:1;fill-rule:nonzero;stroke:none"
         id="rect3046"
         width="311"
         height="311"
         x="209"
         y="266.7764"
         rx="8.0502529"
         ry="8.0502529" />
      <g
         id="g3048"
         transform="matrix(1.0104697,0,0,1.0104697,-2.0125384,14.037728)">
        <g
           style="fill:#a5a5a5;fill-opacity:1;stroke:none;filter:url(#filter5589)"
           id="g3050"
           transform="translate(1.4142136,5.656854)">
          <rect
             transform="matrix(-0.70811576,-0.70609636,0.70811576,-0.70609636,0,0)"
             ry="25.730583"
             rx="25.730583"
             y="-98.111023"
             x="-606.68683"
             height="52.958271"
             width="176.18811"
             id="rect3052"
             style="fill:#a5a5a5;fill-opacity:1;fill-rule:nonzero;stroke:none" />
          <rect
             style="fill:#a5a5a5;fill-opacity:1;fill-rule:nonzero;stroke:none"
             id="rect3054"
             width="176.18811"
             height="52.958271"
             x="-94.654358"
             y="555.50201"
             rx="25.730583"
             ry="25.730583"
             transform="matrix(0.70609636,-0.70811576,0.70609636,0.70811576,0,0)" />
        </g>
        <g
           style="fill:#fdfdfd;fill-opacity:1;stroke:none"
           transform="translate(1.4142136,5.656854)"
           id="g3056">
          <rect
             style="fill:#fdfdfd;fill-opacity:1;fill-rule:nonzero;stroke:none"
             id="rect3058"
             width="176.18811"
             height="52.958271"
             x="-606.68683"
             y="-98.111023"
             rx="25.730583"
             ry="25.730583"
             transform="matrix(-0.70811576,-0.70609636,0.70811576,-0.70609636,0,0)" />
          <rect
             transform="matrix(0.70609636,-0.70811576,0.70609636,0.70811576,0,0)"
             ry="25.730583"
             rx="25.730583"
             y="555.50201"
             x="-94.654358"
             height="52.958271"
             width="176.18811"
             id="rect3060"
             style="fill:#fdfdfd;fill-opacity:1;fill-rule:nonzero;stroke:none" />
        </g>
      </g>
    </g>
    <g
       transform="translate(-385,-333)"
       id="g3062">
      <path
         id="path3064"
         d="m 574.44283,255.7764 303.42815,0 c 4.45984,0 8.05025,3.59041 8.05025,8.05025 l 0,302.7329 c 0,4.45984 -3.59041,8.05025 -8.05025,8.05025 l -303.42815,0 c -4.45984,0 -8.05025,-3.59041 -8.05025,-8.05025 l 0,-302.7329 c 0,-4.45984 3.59041,-8.05025 8.05025,-8.05025 z"
         style="fill:#c00011;fill-opacity:1;fill-rule:nonzero;stroke:none"
         inkscape:connector-curvature="0" />
      <path
         id="path3066"
         d="m 579.05025,255.7764 294.8995,0 c 4.45984,0 8.05025,3.59041 8.05025,8.05025 l 0,294.89949 c 0,4.45984 -3.59041,8.05026 -8.05025,8.05026 l -294.8995,0 c -4.45984,0 -8.05025,-3.59042 -8.05025,-8.05026 l 0,-294.89949 c 0,-4.45984 3.59041,-8.05025 8.05025,-8.05025 z"
         style="fill:#ed4855;fill-opacity:1;fill-rule:nonzero;stroke:none"
         inkscape:connector-curvature="0" />
      <g
         transform="matrix(1.0104697,0,0,1.0104697,359.98746,3.037728)"
         id="g3068">
        <g
           transform="translate(1.4142136,5.656854)"
           id="g3070"
           style="fill:#a5a5a5;fill-opacity:1;stroke:none;filter:url(#filter5589)">
          <path
             id="path3072"
             d="m -580.95625,-98.111023 124.72695,0 c 14.25474,0 25.73058,11.47584 25.73058,25.730583 l 0,1.497105 c 0,14.254743 -11.47584,25.730583 -25.73058,25.730583 l -124.72695,0 c -14.25474,0 -25.73058,-11.47584 -25.73058,-25.730583 l 0,-1.497105 c 0,-14.254743 11.47584,-25.730583 25.73058,-25.730583 z"
             style="fill:#a5a5a5;fill-rule:nonzero"
             transform="matrix(-0.70811576,-0.70609636,0.70811576,-0.70609636,0,0)"
             inkscape:connector-curvature="0" />
          <path
             id="path3074"
             d="m -68.923775,555.50201 124.726944,0 c 14.254743,0 25.730583,11.47584 25.730583,25.73059 l 0,1.4971 c 0,14.25475 -11.47584,25.73059 -25.730583,25.73059 l -124.726944,0 c -14.254743,0 -25.730583,-11.47584 -25.730583,-25.73059 l 0,-1.4971 c 0,-14.25475 11.47584,-25.73059 25.730583,-25.73059 z"
             style="fill:#a5a5a5;fill-rule:nonzero"
             transform="matrix(0.70609636,-0.70811576,0.70609636,0.70811576,0,0)"
             inkscape:connector-curvature="0" />
        </g>
        <g
           id="g3076"
           transform="translate(1.4142136,5.656854)"
           style="fill:#fdfdfd;fill-opacity:1;stroke:none">
          <path
             id="path3078"
             d="m -580.95625,-98.111023 124.72695,0 c 14.25474,0 25.73058,11.47584 25.73058,25.730583 l 0,1.497105 c 0,14.254743 -11.47584,25.730583 -25.73058,25.730583 l -124.72695,0 c -14.25474,0 -25.73058,-11.47584 -25.73058,-25.730583 l 0,-1.497105 c 0,-14.254743 11.47584,-25.730583 25.73058,-25.730583 z"
             style="fill:#fdfdfd;fill-rule:nonzero"
             transform="matrix(-0.70811576,-0.70609636,0.70811576,-0.70609636,0,0)"
             inkscape:connector-curvature="0" />
          <path
             id="path3080"
             d="m -68.923775,555.50201 124.726944,0 c 14.254743,0 25.730583,11.47584 25.730583,25.73059 l 0,1.4971 c 0,14.25475 -11.47584,25.73059 -25.730583,25.73059 l -124.726944,0 c -14.254743,0 -25.730583,-11.47584 -25.730583,-25.73059 l 0,-1.4971 c 0,-14.25475 11.47584,-25.73059 25.730583,-25.73059 z"
             style="fill:#fdfdfd;fill-rule:nonzero"
             transform="matrix(0.70609636,-0.70811576,0.70609636,0.70811576,0,0)"
             inkscape:connector-curvature="0" />
        </g>
      </g>
    </g>
    <g
       id="g3082"
       transform="translate(-726,-328)">
      <rect
         ry="8.0502529"
         rx="8.0502529"
         y="256.7764"
         x="557.39258"
         height="318.8334"
         width="319.52866"
         id="rect3084"
         style="fill:#ff5866;fill-opacity:1;fill-rule:nonzero;stroke:none" />
      <rect
         style="fill:#f27b84;fill-opacity:1;fill-rule:nonzero;stroke:none"
         id="rect3086"
         width="311"
         height="311"
         x="562"
         y="256.7764"
         rx="8.0502529"
         ry="8.0502529" />
      <g
         id="g3088"
         transform="matrix(1.0104697,0,0,1.0104697,350.98746,4.037728)">
        <g
           style="fill:#a5a5a5;fill-opacity:1;stroke:none;filter:url(#filter5589)"
           id="g3090"
           transform="translate(1.4142136,5.656854)">
          <rect
             transform="matrix(-0.70811576,-0.70609636,0.70811576,-0.70609636,0,0)"
             ry="25.730583"
             rx="25.730583"
             y="-98.111023"
             x="-606.68683"
             height="52.958271"
             width="176.18811"
             id="rect3092"
             style="fill:#a5a5a5;fill-opacity:1;fill-rule:nonzero;stroke:none" />
          <rect
             style="fill:#a5a5a5;fill-opacity:1;fill-rule:nonzero;stroke:none"
             id="rect3094"
             width="176.18811"
             height="52.958271"
             x="-94.654358"
             y="555.50201"
             rx="25.730583"
             ry="25.730583"
             transform="matrix(0.70609636,-0.70811576,0.70609636,0.70811576,0,0)" />
        </g>
        <g
           style="fill:#fdfdfd;fill-opacity:1;stroke:none"
           transform="translate(1.4142136,5.656854)"
           id="g3096">
          <rect
             style="fill:#fdfdfd;fill-opacity:1;fill-rule:nonzero;stroke:none"
             id="rect3098"
             width="176.18811"
             height="52.958271"
             x="-606.68683"
             y="-98.111023"
             rx="25.730583"
             ry="25.730583"
             transform="matrix(-0.70811576,-0.70609636,0.70811576,-0.70609636,0,0)" />
          <rect
             transform="matrix(0.70609636,-0.70811576,0.70609636,0.70811576,0,0)"
             ry="25.730583"
             rx="25.730583"
             y="555.50201"
             x="-94.654358"
             height="52.958271"
             width="176.18811"
             id="rect3100"
             style="fill:#fdfdfd;fill-opacity:1;fill-rule:nonzero;stroke:none" />
        </g>
      </g>
    </g>
    <rect
       style="fill:none;fill-opacity:1;stroke:#000000;stroke-opacity:1;stroke-width:2;stroke-miterlimit:4;stroke-dasharray:none"
       id="rect3114"
       width="720"
       height="1280"
       x="850"
       y="1086.3622" />
    <text
       xml:space="preserve"
       style="font-size:40px;font-style:normal;font-weight:normal;line-height:125%;letter-spacing:0px;word-spacing:0px;fill:#000000;fill-opacity:1;stroke:none;font-family:Sans"
       x="850"
       y="1056.3622"
       id="text3886"
       sodipodi:linespacing="125%"><tspan
         sodipodi:role="line"
         x="850"
         y="1056.3622"
         id="tspan3894">xhdpi sample</tspan></text>
  </g>
</svg>
